<svg xmlns="http://www.w3.org/2000/svg" xmlns:xlink="http://www.w3.org/1999/xlink" width="74" zoomAndPan="magnify" viewBox="0 0 55.5 120.750001" height="161" preserveAspectRatio="xMidYMid meet" version="1.0"><defs><clipPath id="7985157c6a"><path d="M 0 0.414062 L 55.003906 0.414062 L 55.003906 120.085938 L 0 120.085938 Z M 0 0.414062 " clip-rule="nonzero"/></clipPath><clipPath id="b12f73fcc8"><path d="M 27.265625 94.402344 L 43.140625 94.402344 L 43.140625 106.640625 L 27.265625 106.640625 Z M 27.265625 94.402344 " clip-rule="nonzero"/></clipPath><clipPath id="fec422b896"><path d="M 33.386719 94.402344 L 36.988281 94.402344 C 38.609375 94.402344 40.167969 95.046875 41.3125 96.195312 C 42.460938 97.339844 43.105469 98.898438 43.105469 100.519531 C 43.105469 102.144531 42.460938 103.699219 41.3125 104.847656 C 40.167969 105.996094 38.609375 106.640625 36.988281 106.640625 L 33.386719 106.640625 C 31.765625 106.640625 30.207031 105.996094 29.058594 104.847656 C 27.910156 103.699219 27.265625 102.144531 27.265625 100.519531 C 27.265625 98.898438 27.910156 97.339844 29.058594 96.195312 C 30.207031 95.046875 31.765625 94.402344 33.386719 94.402344 Z M 33.386719 94.402344 " clip-rule="nonzero"/></clipPath><clipPath id="8a68f5a828"><path d="M 0.265625 1 L 54.527344 1 L 54.527344 120 L 0.265625 120 Z M 0.265625 1 " clip-rule="nonzero"/></clipPath></defs><g clip-path="url(#7985157c6a)"><path fill="#ffffff" d="M 0 0.414062 L 55.003906 0.414062 L 55.003906 120.085938 L 0 120.085938 Z M 0 0.414062 " fill-opacity="1" fill-rule="nonzero"/></g><g clip-path="url(#b12f73fcc8)"><g clip-path="url(#fec422b896)"><path fill="#966731" d="M 27.265625 94.402344 L 43.09375 94.402344 L 43.09375 106.640625 L 27.265625 106.640625 Z M 27.265625 94.402344 " fill-opacity="1" fill-rule="nonzero"/></g></g><g clip-path="url(#8a68f5a828)"><path fill="#ff3131" d="M 32.78125 119.109375 C 34.285156 118.785156 35.824219 117.75 37.039062 117.886719 C 41.433594 118.398438 42.765625 115.742188 43.863281 112.410156 C 48.519531 98.386719 52.101562 84.113281 53.878906 69.417969 C 54.519531 64.164062 53.105469 62.867188 47.945312 64.027344 C 47.304688 64.175781 46.6875 64.414062 46.050781 64.59375 C 43.90625 65.167969 42.921875 66.769531 43.289062 68.746094 C 43.652344 70.683594 43.191406 72.421875 42.835938 74.191406 C 41.9375 78.722656 40.890625 83.210938 39.898438 87.722656 C 39.65625 87.859375 39.40625 87.878906 39.144531 87.785156 C 38.722656 82.917969 38.148438 78.0625 37.929688 73.195312 C 37.375 60.710938 34.382812 48.441406 34.96875 35.8125 C 35.238281 29.804688 34.246094 23.703125 33.386719 17.703125 C 32.707031 12.984375 33.0625 8.203125 32.066406 3.535156 C 31.566406 1.15625 30.957031 0.71875 29.023438 2.121094 C 25.148438 4.90625 21.296875 7.8125 22.542969 13.582031 C 22.761719 14.597656 22.648438 15.683594 22.761719 16.742188 C 23.757812 26.589844 24.3125 36.46875 24.941406 46.339844 C 25.621094 57.003906 26.34375 67.667969 27.074219 78.335938 C 27.316406 81.894531 27.652344 85.441406 27.964844 89.34375 C 26.21875 88.257812 25.703125 86.84375 24.910156 85.683594 C 22.21875 81.746094 19.015625 78.25 15.929688 74.640625 C 11.21875 69.125 4.941406 71.488281 1.089844 74.179688 C 0.367188 74.683594 -0.0429688 75.332031 0.941406 76.03125 C 3.914062 78.15625 5.671875 81.316406 7.703125 84.214844 C 13.542969 92.527344 18.765625 101.234375 23.988281 109.941406 C 25.347656 112.203125 26.6875 114.472656 28.007812 116.746094 C 29.074219 118.597656 30.234375 119.664062 32.78125 119.109375 Z M 39.707031 89.335938 C 39.738281 89.398438 39.75 89.460938 39.800781 89.523438 C 39.75 89.480469 39.71875 89.429688 39.6875 89.375 C 39.6875 89.367188 39.699219 89.355469 39.707031 89.335938 Z M 39.707031 89.335938 " fill-opacity="1" fill-rule="nonzero"/></g></svg>