<svg xmlns="http://www.w3.org/2000/svg" xmlns:xlink="http://www.w3.org/1999/xlink" width="163" zoomAndPan="magnify" viewBox="0 0 122.25 99.749997" height="133" preserveAspectRatio="xMidYMid meet" version="1.0"><defs><clipPath id="8509e4b5e5"><path d="M 95 12 L 108 12 L 108 29 L 95 29 Z M 95 12 " clip-rule="nonzero"/></clipPath><clipPath id="27d88be9f5"><path d="M 95.355469 28.53125 L 95.527344 12.613281 L 107.800781 12.746094 L 107.628906 28.664062 Z M 95.355469 28.53125 " clip-rule="nonzero"/></clipPath><clipPath id="db5c1fe95a"><path d="M 95.421875 22.394531 L 95.460938 18.785156 C 95.476562 17.15625 96.140625 15.601562 97.304688 14.464844 C 98.46875 13.324219 100.035156 12.695312 101.664062 12.714844 C 103.289062 12.730469 104.84375 13.394531 105.984375 14.558594 C 107.121094 15.71875 107.75 17.289062 107.734375 18.914062 L 107.695312 22.527344 C 107.675781 24.152344 107.015625 25.707031 105.851562 26.84375 C 104.6875 27.984375 103.121094 28.613281 101.492188 28.597656 C 99.863281 28.578125 98.3125 27.917969 97.171875 26.753906 C 96.035156 25.589844 95.402344 24.023438 95.421875 22.394531 Z M 95.421875 22.394531 " clip-rule="nonzero"/></clipPath><clipPath id="fc7c50c563"><path d="M 2 1 L 121 1 L 121 56 L 2 56 Z M 2 1 " clip-rule="nonzero"/></clipPath><clipPath id="4ec7c2d901"><path d="M 1.398438 0.1875 L 121.40625 1.46875 L 120.824219 55.882812 L 0.816406 54.601562 Z M 1.398438 0.1875 " clip-rule="nonzero"/></clipPath><clipPath id="eaa3a4f467"><path d="M 1.398438 0.1875 L 121.40625 1.46875 L 120.824219 55.882812 L 0.816406 54.601562 Z M 1.398438 0.1875 " clip-rule="nonzero"/></clipPath><clipPath id="6dd7c346d9"><path d="M 13 69 L 27 69 L 27 86 L 13 86 Z M 13 69 " clip-rule="nonzero"/></clipPath><clipPath id="44f2e976fe"><path d="M 26.132812 69.710938 L 25.828125 85.625 L 13.554688 85.390625 L 13.859375 69.476562 Z M 26.132812 69.710938 " clip-rule="nonzero"/></clipPath><clipPath id="d3f947b33f"><path d="M 26.015625 75.847656 L 25.945312 79.457031 C 25.914062 81.085938 25.238281 82.632812 24.066406 83.761719 C 22.894531 84.890625 21.320312 85.507812 19.691406 85.476562 C 18.066406 85.445312 16.515625 84.769531 15.386719 83.59375 C 14.257812 82.421875 13.644531 80.847656 13.675781 79.222656 L 13.742188 75.613281 C 13.773438 73.984375 14.449219 72.4375 15.625 71.308594 C 16.796875 70.179688 18.371094 69.5625 19.996094 69.59375 C 21.625 69.625 23.171875 70.300781 24.300781 71.472656 C 25.429688 72.648438 26.046875 74.21875 26.015625 75.847656 Z M 26.015625 75.847656 " clip-rule="nonzero"/></clipPath><clipPath id="5196393bf7"><path d="M 1 43 L 120 43 L 120 98 L 1 98 Z M 1 43 " clip-rule="nonzero"/></clipPath><clipPath id="9b04341370"><path d="M 119.851562 98.851562 L -0.140625 96.546875 L 0.902344 42.140625 L 120.894531 44.445312 Z M 119.851562 98.851562 " clip-rule="nonzero"/></clipPath><clipPath id="d37a014d6c"><path d="M 119.851562 98.851562 L -0.140625 96.546875 L 0.902344 42.140625 L 120.894531 44.445312 Z M 119.851562 98.851562 " clip-rule="nonzero"/></clipPath></defs><g clip-path="url(#8509e4b5e5)"><g clip-path="url(#27d88be9f5)"><g clip-path="url(#db5c1fe95a)"><path fill="#004aad" d="M 95.355469 28.53125 L 95.523438 12.660156 L 107.800781 12.792969 L 107.628906 28.664062 Z M 95.355469 28.53125 " fill-opacity="1" fill-rule="nonzero"/></g></g></g><g clip-path="url(#fc7c50c563)"><g clip-path="url(#4ec7c2d901)"><g clip-path="url(#eaa3a4f467)"><path fill="#004aad" d="M 120.191406 23.269531 C 119.882812 21.753906 118.859375 20.199219 119.011719 18.984375 C 119.570312 14.582031 116.921875 13.21875 113.59375 12.082031 C 99.582031 7.261719 85.304688 3.519531 70.585938 1.578125 C 65.324219 0.878906 64.007812 2.285156 65.117188 7.46875 C 65.257812 8.113281 65.492188 8.734375 65.664062 9.375 C 66.21875 11.535156 67.8125 12.535156 69.800781 12.191406 C 71.746094 11.84375 73.484375 12.324219 75.253906 12.699219 C 79.789062 13.652344 84.28125 14.75 88.792969 15.792969 C 88.925781 16.039062 88.945312 16.289062 88.847656 16.550781 C 83.964844 16.917969 79.085938 17.445312 74.203125 17.613281 C 61.675781 18.035156 49.34375 20.90625 36.683594 20.183594 C 30.660156 19.84375 24.53125 20.777344 18.507812 21.574219 C 13.769531 22.203125 8.976562 21.796875 4.285156 22.742188 C 1.898438 23.222656 1.449219 23.824219 2.835938 25.78125 C 5.585938 29.695312 8.460938 33.589844 14.257812 32.402344 C 15.277344 32.191406 16.367188 32.320312 17.429688 32.214844 C 27.316406 31.324219 37.230469 30.875 47.132812 30.347656 C 57.835938 29.78125 68.539062 29.171875 79.242188 28.550781 C 82.8125 28.347656 86.375 28.050781 90.292969 27.777344 C 89.183594 29.519531 87.757812 30.015625 86.585938 30.800781 C 82.609375 33.457031 79.070312 36.632812 75.417969 39.6875 C 69.835938 44.351562 72.140625 50.675781 74.796875 54.566406 C 75.292969 55.296875 75.9375 55.710938 76.652344 54.734375 C 78.816406 51.777344 82.003906 50.046875 84.933594 48.042969 C 93.328125 42.273438 102.117188 37.128906 110.90625 31.984375 C 113.1875 30.644531 115.476562 29.328125 117.769531 28.027344 C 119.636719 26.976562 120.722656 25.824219 120.191406 23.269531 Z M 90.40625 16 C 90.472656 15.96875 90.535156 15.960938 90.597656 15.910156 C 90.554688 15.960938 90.503906 15.992188 90.449219 16.023438 C 90.4375 16.023438 90.429688 16.011719 90.40625 16 Z M 90.40625 16 " fill-opacity="1" fill-rule="nonzero"/></g></g></g><g clip-path="url(#6dd7c346d9)"><g clip-path="url(#44f2e976fe)"><g clip-path="url(#d3f947b33f)"><path fill="#004aad" d="M 26.132812 69.710938 L 25.828125 85.578125 L 13.554688 85.34375 L 13.859375 69.476562 Z M 26.132812 69.710938 " fill-opacity="1" fill-rule="nonzero"/></g></g></g><g clip-path="url(#5196393bf7)"><g clip-path="url(#9b04341370)"><g clip-path="url(#d37a014d6c)"><path fill="#004aad" d="M 1.257812 74.761719 C 1.550781 76.277344 2.5625 77.839844 2.402344 79.054688 C 1.804688 83.453125 4.441406 84.835938 7.757812 86.003906 C 21.730469 90.941406 35.976562 94.804688 50.675781 96.871094 C 55.929688 97.613281 57.261719 96.222656 56.195312 91.027344 C 56.058594 90.382812 55.832031 89.757812 55.664062 89.117188 C 55.128906 86.953125 53.542969 85.9375 51.550781 86.265625 C 49.601562 86.59375 47.871094 86.101562 46.101562 85.710938 C 41.578125 84.71875 37.09375 83.585938 32.589844 82.5 C 32.460938 82.257812 32.441406 82.003906 32.542969 81.742188 C 37.429688 81.417969 42.3125 80.933594 47.195312 80.808594 C 59.722656 80.492188 72.082031 77.726562 84.734375 78.558594 C 90.753906 78.945312 96.890625 78.066406 102.921875 77.320312 C 107.667969 76.730469 112.457031 77.179688 117.15625 76.273438 C 119.546875 75.8125 120 75.214844 118.632812 73.246094 C 115.914062 69.308594 113.070312 65.390625 107.265625 66.527344 C 106.242188 66.730469 105.152344 66.59375 104.089844 66.6875 C 94.199219 67.496094 84.28125 67.863281 74.371094 68.300781 C 63.664062 68.777344 52.957031 69.296875 42.25 69.824219 C 38.679688 70 35.113281 70.265625 31.195312 70.503906 C 32.320312 68.773438 33.746094 68.289062 34.925781 67.511719 C 38.921875 64.890625 42.488281 61.746094 46.167969 58.722656 C 51.789062 54.105469 49.539062 47.761719 46.917969 43.847656 C 46.425781 43.117188 45.785156 42.695312 45.0625 43.667969 C 42.875 46.605469 39.671875 48.308594 36.726562 50.289062 C 28.28125 55.984375 19.449219 61.050781 10.617188 66.121094 C 8.324219 67.441406 6.023438 68.742188 3.71875 70.019531 C 1.84375 71.054688 0.75 72.199219 1.257812 74.761719 Z M 30.976562 82.28125 C 30.914062 82.3125 30.851562 82.320312 30.789062 82.371094 C 30.832031 82.320312 30.882812 82.289062 30.9375 82.257812 C 30.949219 82.257812 30.957031 82.269531 30.976562 82.28125 Z M 30.976562 82.28125 " fill-opacity="1" fill-rule="nonzero"/></g></g></g></svg>