<svg xmlns="http://www.w3.org/2000/svg" xmlns:xlink="http://www.w3.org/1999/xlink" width="74" zoomAndPan="magnify" viewBox="0 0 55.5 120.750001" height="161" preserveAspectRatio="xMidYMid meet" version="1.0"><defs><clipPath id="188228b6ea"><path d="M 11.429688 14.609375 L 27.300781 14.609375 L 27.300781 26.847656 L 11.429688 26.847656 Z M 11.429688 14.609375 " clip-rule="nonzero"/></clipPath><clipPath id="31bfb5a37b"><path d="M 17.546875 14.609375 L 21.148438 14.609375 C 22.769531 14.609375 24.328125 15.253906 25.476562 16.402344 C 26.621094 17.550781 27.265625 19.105469 27.265625 20.726562 C 27.265625 22.351562 26.621094 23.90625 25.476562 25.054688 C 24.328125 26.203125 22.769531 26.847656 21.148438 26.847656 L 17.546875 26.847656 C 15.925781 26.847656 14.367188 26.203125 13.21875 25.054688 C 12.074219 23.90625 11.429688 22.351562 11.429688 20.726562 C 11.429688 19.105469 12.074219 17.550781 13.21875 16.402344 C 14.367188 15.253906 15.925781 14.609375 17.546875 14.609375 Z M 17.546875 14.609375 " clip-rule="nonzero"/></clipPath><clipPath id="e4d2004904"><path d="M 0 1 L 54.261719 1 L 54.261719 119.9375 L 0 119.9375 Z M 0 1 " clip-rule="nonzero"/></clipPath></defs><g clip-path="url(#188228b6ea)"><g clip-path="url(#31bfb5a37b)"><path fill="#966731" d="M 11.429688 14.609375 L 27.253906 14.609375 L 27.253906 26.847656 L 11.429688 26.847656 Z M 11.429688 14.609375 " fill-opacity="1" fill-rule="nonzero"/></g></g><g clip-path="url(#e4d2004904)"><path fill="#11d964" d="M 21.75 1.242188 C 20.242188 1.566406 18.703125 2.601562 17.488281 2.464844 C 13.09375 1.953125 11.765625 4.613281 10.664062 7.941406 C 6.007812 21.964844 2.429688 36.238281 0.648438 50.933594 C 0.0117188 56.1875 1.421875 57.484375 6.582031 56.324219 C 7.222656 56.179688 7.839844 55.9375 8.476562 55.757812 C 10.621094 55.183594 11.605469 53.582031 11.242188 51.605469 C 10.875 49.667969 11.335938 47.929688 11.691406 46.160156 C 12.589844 41.628906 13.636719 37.140625 14.632812 32.628906 C 14.871094 32.492188 15.125 32.472656 15.386719 32.566406 C 15.804688 37.433594 16.378906 42.289062 16.597656 47.15625 C 17.152344 59.640625 20.148438 71.910156 19.5625 84.539062 C 19.289062 90.546875 20.28125 96.648438 21.140625 102.648438 C 21.820312 107.367188 21.464844 112.148438 22.460938 116.816406 C 22.960938 119.195312 23.570312 119.632812 25.503906 118.230469 C 29.378906 115.445312 33.230469 112.539062 31.984375 106.769531 C 31.765625 105.753906 31.878906 104.667969 31.765625 103.609375 C 30.769531 93.761719 30.214844 83.882812 29.585938 74.011719 C 28.90625 63.347656 28.183594 52.683594 27.453125 42.015625 C 27.210938 38.457031 26.875 34.910156 26.5625 31.007812 C 28.3125 32.09375 28.824219 33.507812 29.617188 34.671875 C 32.308594 38.605469 35.511719 42.101562 38.597656 45.710938 C 43.308594 51.226562 49.589844 48.863281 53.441406 46.171875 C 54.160156 45.667969 54.570312 45.019531 53.585938 44.320312 C 50.613281 42.195312 48.855469 39.035156 46.824219 36.136719 C 40.984375 27.824219 35.761719 19.117188 30.539062 10.410156 C 29.179688 8.148438 27.839844 5.878906 26.519531 3.605469 C 25.453125 1.753906 24.292969 0.6875 21.75 1.242188 Z M 14.820312 31.015625 C 14.789062 30.953125 14.777344 30.890625 14.726562 30.828125 C 14.777344 30.871094 14.808594 30.921875 14.839844 30.976562 C 14.839844 30.984375 14.832031 30.996094 14.820312 31.015625 Z M 14.820312 31.015625 " fill-opacity="1" fill-rule="nonzero"/></g></svg>